<?xml version="1.0" standalone="no"?><!DOCTYPE svg PUBLIC "-//W3C//DTD SVG 1.1//EN" "http://www.w3.org/Graphics/SVG/1.1/DTD/svg11.dtd"><svg t="1764924880865" class="icon" viewBox="0 0 1024 1024" version="1.1" xmlns="http://www.w3.org/2000/svg" p-id="9881" xmlns:xlink="http://www.w3.org/1999/xlink" width="200" height="200"><path d="M512.2 64.2c-247.4 0-448 200.6-448 448s200.6 448 448 448 448-200.6 448-448-200.6-448-448-448zM708.3 889c-25.3 13.5-51.1 25.9-79 30.2-12.4 0-23.1 3.2-35.5 3.2 0 0-17.1 0.9-53.2-8.1-36-8.9-70.4-25.9-98.4-52.3-51.2-52.8-71.6-131-51.2-199.5 10.2-34 30.6-66.3 57.5-90.6 32.8-23.2 66.1-44.7 97.9-71.2 38.2-27.5 80.7-57.1 98.9-101.3 15.1-22.1 17.7-49.1 22.6-75.5 8.1-78.7-30.6-160.1-101.6-201-14-9.7-30.7-14-45.2-22.1-16.7-2.7-31.2-9.7-47.3-9.7-1.6-1.1 0.5-1.1-0.5-1.6C512 83.1 562 87.4 602.9 96c109.7 23.2 214 96.5 272.1 194.6l16.7 29.7c57.5 108.9 60.2 258.8 7 368.2-35.6 82.4-109.2 161.6-190.4 200.5zM454.8 246c32.1 0 58.2 26.1 58.2 58.4 0 32.2-26 58.3-58.2 58.3s-58.2-26.1-58.2-58.3c0-32.3 26.1-58.4 58.2-58.4z" fill="#E67171" p-id="9882"></path><path d="M576.6 667.4c-32.1 0-58.2 26.1-58.2 58.3 0 32.2 26.1 58.3 58.2 58.3s58.2-26.1 58.2-58.3c0-32.2-26-58.3-58.2-58.3z" fill="#E67171" p-id="9883"></path></svg>